<?xml version="1.0" encoding="utf-8"?>
<!-- Generator: Adobe Illustrator 18.0.0, SVG Export Plug-In . SVG Version: 6.00 Build 0)  -->
<!DOCTYPE svg PUBLIC "-//W3C//DTD SVG 1.1//EN" "http://www.w3.org/Graphics/SVG/1.1/DTD/svg11.dtd">
<svg version="1.1" id="animal--el" xmlns="http://www.w3.org/2000/svg" xmlns:xlink="http://www.w3.org/1999/xlink" x="0px" y="0px"
	 viewBox="0 0 200 200" enable-background="new 0 0 200 200" xml:space="preserve">
<defs>
	
	<link  type="text/css" rel="stylesheet" xmlns="http://www.w3.org/1999/xhtml" href="/stylesheets/main.css"></link>
</defs>
<g id="elephant--g">
	
		<linearGradient id="SVGID_1_" gradientUnits="userSpaceOnUse" x1="435.7249" y1="1149.6488" x2="156.8233" y2="666.5772" gradientTransform="matrix(0.7273 0 0 -0.7273 0.2727 725.9095)">
		<stop  offset="0" style="stop-color:#FFFFFF"/>
		<stop  offset="0" style="stop-color:#F5E4ED"/>
		<stop  offset="0" style="stop-color:#E6BBD2"/>
		<stop  offset="0" style="stop-color:#D795B9"/>
		<stop  offset="0" style="stop-color:#CB75A3"/>
		<stop  offset="0" style="stop-color:#C15991"/>
		<stop  offset="0" style="stop-color:#B94383"/>
		<stop  offset="0" style="stop-color:#B33278"/>
		<stop  offset="0" style="stop-color:#AE2770"/>
		<stop  offset="0" style="stop-color:#AC206B"/>
		<stop  offset="0" style="stop-color:#AB1E6A"/>
		<stop  offset="0.3315" style="stop-color:#7A1B55"/>
		<stop  offset="0.7845" style="stop-color:#3C173A"/>
		<stop  offset="1" style="stop-color:#241630"/>
	</linearGradient>
	<path fill="url(#SVGID_1_)" d="M253.1-79.8c0,0,6.1,2.2,9.9-1c3.8-3.2,11.7-8.3,23.4,0c8.3,1.6,16.1,1.6,21.2,0
		c5-1.6,24.6-1.6,32.3,1c7.7,2.8,20.6,7.7,22.4,22.4c1.6,14.5,4.4,34.5,13.3,51.5c4.4,8.3,1.6,55.3,2.2,59.1
		c0.6,3.8,9.9,12.3,24.6,12.3c0,0-4.4,6.1-24.6-2.2c0,0-0.6,6.1,2.2,8.9c2.8,2.8,11.7,7.3,22.4,8.9c0,0-15.5,2.2-24.6-2.2
		c0,0,0.6,18,3.2,26.8c2.6,8.9,8.9,35.1,7.7,44.6c-1,9.5-5.4,22.4-14.5,23.4c-8.9,1-14.5-8.9-14.5-8.9s3.2-6.7,5.4-4.4
		c2.2,2.2,5,6.1,8.9,3.2c3.8-2.8,7.3-19-3.2-38.9c-10.5-20-16.1-48.4-19-62.6c-2.8-13.9-11.1-13.9-14.5-13.3
		c-3.2,0.6-13.3-6.1-18-9.9c-4.4-3.8-49,19.6-51.5,31.3c-2.2,11.7-1.6,63.6-3.2,72.4c-1.6,8.9-2.2,37.9,0,42.4
		c2.2,4.4,2.2,7.7,0,7.7s-30.1,6.1-58.1,0c-4.4-5-1-14.5,3.2-23.4c4.2-8.9,10.5-23.4,7.7-49c-2.8-25.8-11.1-24-14.5-22.4
		c-3.2,1.6-63.6-2.2-71.4,0c-7.7,2.2-23.4,15.5-23.4,23.4c0,7.7-7.3,47.4-6.7,51.5c0.6,3.8,8.3,14.5,8.9,16.7s-1.6,5-4.4,6.7
		s-55.3,6.1-61.3,3.2s-3.8-26.2-1-41.2c2.8-15.1,3.2-25.2-1-37.9s-14.5-28.5-18-62.6l-3.2-1c0,0-1.6,39.5-11.1,54.7
		c-0.6,3.8,0.6,11.7-7.7,13.3c0,0-4.4-3.2,3.2-13.3c7.7-9.9,9.9-37.9,11.1-80.3c2-43,65.8-95.4,121.3-108.8
		C161-83.7,253.1-79.8,253.1-79.8z"/>
</g>
</svg>
