<?xml version="1.0" encoding="utf-8"?>
<!-- Generator: Adobe Illustrator 18.0.0, SVG Export Plug-In . SVG Version: 6.00 Build 0)  -->
<!DOCTYPE svg PUBLIC "-//W3C//DTD SVG 1.1//EN" "http://www.w3.org/Graphics/SVG/1.1/DTD/svg11.dtd">
<svg version="1.1" id="animal--bu" xmlns="http://www.w3.org/2000/svg" xmlns:xlink="http://www.w3.org/1999/xlink" x="0px" y="0px"
	 viewBox="0 0 200 200" enable-background="new 0 0 200 200" xml:space="preserve">
<defs>
	
	<link  type="text/css" rel="stylesheet" xmlns="http://www.w3.org/1999/xhtml" href="/stylesheets/main.css"></link>
</defs>
<g id="buffle--g">
	
		<linearGradient id="SVGID_1_" gradientUnits="userSpaceOnUse" x1="132.0412" y1="908.9464" x2="39.6663" y2="748.9481" gradientTransform="matrix(0.7547 0 0 -0.7547 0 779.0582)">
		<stop  offset="0" style="stop-color:#FFFFFF"/>
		<stop  offset="0" style="stop-color:#F2EEE5"/>
		<stop  offset="0" style="stop-color:#DED3BC"/>
		<stop  offset="0" style="stop-color:#CBBA96"/>
		<stop  offset="0" style="stop-color:#BBA576"/>
		<stop  offset="0" style="stop-color:#AD935A"/>
		<stop  offset="0" style="stop-color:#A38544"/>
		<stop  offset="0" style="stop-color:#9A7933"/>
		<stop  offset="0" style="stop-color:#947228"/>
		<stop  offset="0" style="stop-color:#916D21"/>
		<stop  offset="0" style="stop-color:#906C1F"/>
		<stop  offset="0.1722" style="stop-color:#84581D"/>
		<stop  offset="0.6282" style="stop-color:#682817"/>
		<stop  offset="0.8548" style="stop-color:#5D1515"/>
	</linearGradient>
	<path fill="url(#SVGID_1_)" d="M117.8,123.3c0,0-6.2-7.4-17.1-7.4s-22,5.4-25.4,5.9c-3.3,0.6-18.5-0.4-24.5-2
		c-6-1.6-19.3,4.8-28.7,16.3c-5.7,5.4-11.9,2.9-13.2,2c-1.4-1-3.3-4.1-2.7-9.8c1.4-2,3.7-5.8,3.8-8.6c0.2-2.8,1.8-7.4,3.1-8.9
		c0,0-3.3,2.1-3.5,3.9c0,0,0.8-5.1,1.6-5.4c0,0-2,0.8-2.3,1.5c0,0,1.1-4.7,2.3-6.3c0.2-1,0-2,0-2s-1,2-3.1,3.5c-2.1,1.5-5,5.3-5,8.2
		c0,3,0.4,5.8,0.4,5.8s-1.6-2.9-1.6-3.5c0,0-0.4,6.7,1.1,10.1c0.2,2.5-0.8,10.1,5.1,13.6s11.6,1.4,15.2-0.3
		c1.1,0.2,1.1,15.6,0.8,17.9c-0.4,2.3-4.5,9.3-5.4,12.5c-1,3.1,0.6,12.8,0.4,16.7s-1.5,5.8-0.8,7.3c0.8,1.6,3.1,0.4,3.1,0.4
		s0.2,3.1-0.4,4.3s11.7,0.8,11.7,0.8s-0.6-3.9-5.4-9.3c-0.6-2.3-1.1-8.6,0.4-11.3c1.5-2.8,12.6-14.4,12.5-15.6c0,0,0.8,5.7-0.8,8.6
		c-1.5,3,2.1,8.3,3.1,10.5c1,2.1,2.5,8.2,2.7,10.1c0.2,2,3.3-0.2,3.8,1.1c0.5,1.4-1.4,4.1-0.8,5c0.6,1,9.3,0.8,10.1,0.4
		c0.8-0.3,0.8-3.5-1.6-5.8c-2.4-2.3-5.4-5.4-6.7-11.6c-1.1-6.2,0-11.6,4.7-14.1c2,0.6,2.9,4.7,6.3,5.1s5.4-3.5,7.8-3.5
		s11.9,1.4,18.7,0.4c2.3-0.2,2.1,6.4,1.6,10.1s-1,7.8-2.3,10.1c-1.3,2.3,0.8,1.6,2,2.8c1.2,1.1,1.6,5.8,1.1,6.7
		c-0.4,0.8,9.3,0.8,10.1,0c0.8-0.8-0.6-3.1-2.3-4.7c-1.8-1.6-3.5-5.4-2.8-7.8c0.8-2.3,2.8-10.1,3.5-12.1c0.8-2,3.9-3.1,4.3-5.8
		c0,0,5,10.1,6.2,13.2c1.1,3.1-0.2,8.2,0,8.9c0.2,0.8,2.1,0,3.1,0.8c1,0.8-0.4,6.7,0.4,7.3c0.8,0.8,11.3,0.8,11.3,0
		c0-0.8-1.6-3.7-3.1-5.4c-1.6-1.8-4.3-11.1-4.7-13.2c-0.4-2.1-0.6-13.2-2-16.7c-1.4-3.5,0-3.9,2.8-5.8s5.4-6.7,7-6.7
		c1.5,0,11.6-0.2,13.2,0.4c1.6,0.6,4.7,3.1,7.8,3.1c3.1,0,7.6-3.5,7.8-6.2c0.2-2.8-4.3-12.3-5.8-13.6c-1.6-1.4-0.4-3.9,0.8-5.4
		c1.1-1.6,3.9-6-2-10.1c0,0,2.5,3.7,1.1,5.4s-2.1,0.6-2.3,0c-0.2-0.6-0.6-1.1-2.3-1.6c-0.8-1-2-3.5-5-3.5c-3.1,0-7.6,2-9.3,2.8
		c-1.8,0.8-4.9,0-4.7-2c0.2-2,0.6-3.8,5-4.7c0.4-0.8-2.1-2-4.7-0.8C120.8,116.6,118.2,118.2,117.8,123.3z"/>
</g>
</svg>
