<?xml version="1.0" encoding="utf-8"?>
<!-- Generator: Adobe Illustrator 18.0.0, SVG Export Plug-In . SVG Version: 6.00 Build 0)  -->
<!DOCTYPE svg PUBLIC "-//W3C//DTD SVG 1.1//EN" "http://www.w3.org/Graphics/SVG/1.1/DTD/svg11.dtd">
<svg version="1.1" id="animal--el" xmlns="http://www.w3.org/2000/svg" xmlns:xlink="http://www.w3.org/1999/xlink" x="0px" y="0px"
	 viewBox="0 0 200 200" enable-background="new 0 0 200 200" xml:space="preserve">
       <defs>
      <link href="/stylesheets/main.css" type="text/css" rel="stylesheet" xmlns="http://www.w3.org/1999/xhtml"/>
    </defs>
<g id="elephant--g">
	<linearGradient id="grad_elephant" gradientUnits="userSpaceOnUse" x1="216.6419" y1="-734.3446" x2="78.4183" y2="-494.9344" gradientTransform="matrix(0.7273 0 0 0.7273 0.2727 580.4495)">
         <stop  offset="0" style="stop-color:#FFFFFF"/>
         <stop  offset="0" style="stop-color:#F5E4ED"/>
         <stop  offset="0" style="stop-color:#E6BBD2"/>
         <stop  offset="0" style="stop-color:#D795B9"/>
         <stop  offset="0" style="stop-color:#CB75A3"/>
         <stop  offset="0" style="stop-color:#C15991"/>
         <stop  offset="0" style="stop-color:#B94383"/>
         <stop  offset="0" style="stop-color:#B33278"/>
         <stop  offset="0" style="stop-color:#AE2770"/>
         <stop  offset="0" style="stop-color:#AC206B"/>
         <stop  offset="0" style="stop-color:#AB1E6A"/>
         <stop  offset="0.3315" style="stop-color:#7A1B55"/>
         <stop  offset="0.7845" style="stop-color:#3C173A"/>
         <stop  offset="1" style="stop-color:#241630"/>
       </linearGradient>
	<path fill="url(#grad_elephant)" d="M126,61.4c0,0,3,1.1,4.9-0.5c1.9-1.6,5.8-4.1,11.6,0c4.1,0.8,8,0.8,10.5,0c2.5-0.8,12.2-0.8,16,0.5
		c3.8,1.4,10.2,3.8,11.1,11.1c0.8,7.2,2.2,17.1,6.6,25.5c2.2,4.1,0.8,27.4,1.1,29.3s4.9,6.1,12.2,6.1c0,0-2.2,3-12.2-1.1
		c0,0-0.3,3,1.1,4.4c1.4,1.4,5.8,3.6,11.1,4.4c0,0-7.7,1.1-12.2-1.1c0,0,0.3,8.9,1.6,13.3c1.3,4.4,4.4,17.4,3.8,22.1
		c-0.5,4.7-2.7,11.1-7.2,11.6c-4.4,0.5-7.2-4.4-7.2-4.4s1.6-3.3,2.7-2.2s2.5,3,4.4,1.6c1.9-1.4,3.6-9.4-1.6-19.3s-8-24-9.4-31
		c-1.4-6.9-5.5-6.9-7.2-6.6c-1.6,0.3-6.6-3-8.9-4.9c-2.2-1.9-24.3,9.7-25.5,15.5c-1.1,5.8-0.8,31.5-1.6,35.9c-0.8,4.4-1.1,18.8,0,21
		c1.1,2.2,1.1,3.8,0,3.8c-1.1,0-14.9,3-28.8,0c-2.2-2.5-0.5-7.2,1.6-11.6c2.1-4.4,5.2-11.6,3.8-24.3c-1.4-12.8-5.5-11.9-7.2-11.1
		c-1.6,0.8-31.5-1.1-35.4,0c-3.8,1.1-11.6,7.7-11.6,11.6c0,3.8-3.6,23.5-3.3,25.5c0.3,1.9,4.1,7.2,4.4,8.3c0.3,1.1-0.8,2.5-2.2,3.3
		c-1.4,0.8-27.4,3-30.4,1.6s-1.9-13-0.5-20.4c1.4-7.5,1.6-12.5-0.5-18.8s-7.2-14.1-8.9-31l-1.6-0.5c0,0-0.8,19.6-5.5,27.1
		c-0.3,1.9,0.3,5.8-3.8,6.6c0,0-2.2-1.6,1.6-6.6c3.8-4.9,4.9-18.8,5.5-39.8C9.9,95,41.5,69,69,62.4C80.4,59.5,126,61.4,126,61.4z"/>
</g>
</svg>
