<?xml version="1.0" encoding="utf-8"?>
<!-- Generator: Adobe Illustrator 18.0.0, SVG Export Plug-In . SVG Version: 6.00 Build 0)  -->
<!DOCTYPE svg PUBLIC "-//W3C//DTD SVG 1.1//EN" "http://www.w3.org/Graphics/SVG/1.1/DTD/svg11.dtd">
<svg version="1.1" id="animal--le" xmlns="http://www.w3.org/2000/svg" xmlns:xlink="http://www.w3.org/1999/xlink" x="0px" y="0px"
	 viewBox="0 0 200 200" enable-background="new 0 0 200 200" xml:space="preserve">
<defs>
	
	<link  type="text/css" rel="stylesheet" xmlns="http://www.w3.org/1999/xhtml" href="/stylesheets/main.css"></link>
</defs>
<g id="animaux">
	
		<linearGradient id="SVGID_1_" gradientUnits="userSpaceOnUse" x1="113.8409" y1="960.5317" x2="44.8158" y2="840.9769" gradientTransform="matrix(0.6097 0 0 -0.6097 0 721.3989)">
		<stop  offset="0" style="stop-color:#FFFFFF"/>
		<stop  offset="0" style="stop-color:#FDFAF6"/>
		<stop  offset="0" style="stop-color:#F6DFC8"/>
		<stop  offset="0" style="stop-color:#EEC69D"/>
		<stop  offset="0" style="stop-color:#E8B077"/>
		<stop  offset="0" style="stop-color:#E39D57"/>
		<stop  offset="0" style="stop-color:#DE8D3B"/>
		<stop  offset="0" style="stop-color:#DA8025"/>
		<stop  offset="0" style="stop-color:#D77614"/>
		<stop  offset="0" style="stop-color:#D56F09"/>
		<stop  offset="0" style="stop-color:#D46B02"/>
		<stop  offset="0" style="stop-color:#D46A00"/>
		<stop  offset="0.1385" style="stop-color:#CE6501"/>
		<stop  offset="0.3214" style="stop-color:#BE5802"/>
		<stop  offset="0.5289" style="stop-color:#A24205"/>
		<stop  offset="0.7533" style="stop-color:#7C240A"/>
		<stop  offset="0.7709" style="stop-color:#79210A"/>
	</linearGradient>
	<path fill="url(#SVGID_1_)" d="M97.4,154.4c0,0,4.2,3.9,4.2,4.2c0.1,0.4,0.6,3,1.4,3.6c0.8,0.6,2.1,2,1.7,3c-0.3,0.7-0.8,0.7-1,1.1
		s-0.6,1.5-2.1,1.6c0,0,0.1,1.4-1.8,1.4c-1.8,0.1-3.7-1.1-4-2.1c0,0-1.3-0.1-2.3-0.4c-1-0.4-1.7-0.8-2.6-0.6
		c-0.9,0.2-3.2,1.6-4.3,1.8c0,0,0.1,5.1-1.2,6.6c0,0-0.1,2.6,6.1,8.4c0.7,0.7,1.1,1.5,1.5,2.9c0.4,1.4,1.7,1.8,1.7,2.3
		c0.1,0.4,0.5,2.1,1.7,3.6c1.3,1.6,0,2.6,0,2.6s-0.4,1.3-1.4,1.2c-1.1-0.2-3.9-2.5-4.2-5.9c-0.1-0.5-1.1-0.8-1.3-1.4
		c-0.3-0.6-0.2-1.2-0.8-1.4c-0.6-0.2-4.5-2.9-5.1-3c-0.6-0.2-3.7-1.5-4.2-2.2s-2.3-1.5-2.6-1.6c-0.3-0.1-0.7-1.2-0.8-1.7
		s-0.6-0.8-0.6-0.8s-2.9,1.6-3.4,4.8c-0.5,3.2-0.5,9-0.2,9.5c0.3,0.6,1,1.8,0.8,2.7c0,0,2.5-0.3,2.9,1c0,0,3.3,2.3-1.3,2.9
		c0,0-1,0.8-3.6-0.1c-1.8-0.8-2.1-3-2.5-3.5c-0.5-0.5-1.3-1.9-1.6-4.1c-0.4-2.2-1.3-6.9-1.3-8c0.1-1.1-0.3-4.5-0.5-5.7
		c0,0-11.5,1-18.5-0.6c0,0-0.7,2.4-0.5,6.1c0.1,0.9-1.2,3.6-1.2,4.6s-0.6,1.6,1.6,4.1c0,0,1,1.5,3.2,1.3c2.1-0.2,4.7,1.6,4,2.9
		c-0.3,0.6-1,0.5-1,0.5s-0.4,0.8-1,0.8c-0.6,0.1-4.1,0.4-5.1-0.4c-1-0.8-3-2.6-3.8-2.9c-0.8-0.3-4.5-4.2-4.5-5.4
		c-0.1-1.2,0.4-2.9,0-4.8c-0.4-1.8-1.6-5-2.1-5.6s0.3-1.3-1.4-2.5c0,0-4,2.3-5,3.8c-1.1,1.5-3.2,2.3-5.4,5c-2.3,2.6-4,2.8-4.8,5
		s-1,4.5,0.3,4.9c1.3,0.4,1.7,0.5,1.7,1.2c0,0,1.1,0.6,0.3,1.4c0,0-0.3,0.8-1.7,0.6c0,0-0.6,0.8-3.2-0.1S15,187,15,186.6
		s-0.6-2.8-0.1-3.3c0.5-0.6,1.8-0.8,3.2-4.8c1.4-4,1.5-4.3,3.6-6.6c0.4-0.6-0.4-2.6,0.2-4.1c0,0-3.7,1.8-7.6,1.2
		c-3.9-0.7-11.8-3.9-13.6-14.4c-1.8-10.5,7.4-12.8,9.7-10c0,0,1,2.1-2.6,2.6c-3.6,0.5-5.4,3.6-4.1,7.9s3.7,10,9.8,10.4
		s8.8-4.2,9.2-4.6c0.5-0.5,4-4.8,13.4-6.3c9.4-1.5,19.3,1.3,30.7,1c2.1-0.1,4.9-1.7,5.9-1.7c1-0.1,5.8,0.5,12.7,0
		c6.9-0.5,8.3-0.3,8.3-0.3s2-2.7,2.9-2.2C97.3,151.9,97.4,154.4,97.4,154.4z"/>
</g>
<g id="finaux">
</g>
</svg>
