<?xml version="1.0" encoding="utf-8"?>
<!-- Generator: Adobe Illustrator 18.0.0, SVG Export Plug-In . SVG Version: 6.00 Build 0)  -->
<!DOCTYPE svg PUBLIC "-//W3C//DTD SVG 1.1//EN" "http://www.w3.org/Graphics/SVG/1.1/DTD/svg11.dtd">
<svg version="1.1" id="animal--li" xmlns="http://www.w3.org/2000/svg" xmlns:xlink="http://www.w3.org/1999/xlink" x="0px" y="0px"
	 viewBox="0 0 200 200" enable-background="new 0 0 200 200" xml:space="preserve">
<defs>
	
	<link  type="text/css" rel="stylesheet" xmlns="http://www.w3.org/1999/xhtml" href="/stylesheets/main.css"></link>
</defs>
<g id="lion--g">
	
		<linearGradient id="SVGID_1_" gradientUnits="userSpaceOnUse" x1="145.532" y1="986.9206" x2="65.9045" y2="849.0015" gradientTransform="matrix(0.5917 0 0 -0.5917 0 715.3884)">
		<stop  offset="0" style="stop-color:#FFFFFF"/>
		<stop  offset="0" style="stop-color:#FFFFFC"/>
		<stop  offset="0" style="stop-color:#FFFCCE"/>
		<stop  offset="0" style="stop-color:#FFF9A5"/>
		<stop  offset="0" style="stop-color:#FFF67F"/>
		<stop  offset="0" style="stop-color:#FFF45F"/>
		<stop  offset="0" style="stop-color:#FFF243"/>
		<stop  offset="0" style="stop-color:#FFF12D"/>
		<stop  offset="0" style="stop-color:#FFEF1C"/>
		<stop  offset="0" style="stop-color:#FFEF11"/>
		<stop  offset="0" style="stop-color:#FFEE0A"/>
		<stop  offset="0" style="stop-color:#FFEE08"/>
		<stop  offset="0.1038" style="stop-color:#FEE90A"/>
		<stop  offset="0.2329" style="stop-color:#FBD911"/>
		<stop  offset="0.3753" style="stop-color:#F6C01B"/>
		<stop  offset="0.5274" style="stop-color:#EF9D2A"/>
		<stop  offset="0.6857" style="stop-color:#E7703D"/>
		<stop  offset="0.7013" style="stop-color:#E66B3F"/>
	</linearGradient>
	<path fill="url(#SVGID_1_)" d="M108,150.4c0,0,2.7,1.6,2.9,2.5c0.3,1,0.1,2.5,0.7,3.1c0.6,0.6,3.4,3.3,3.6,4.6c0.2,1.3-0.9,2-1,2.4
		c-0.1,0.5-0.5,1.7-2.4,2.1c-0.5,1-0.9,1.8-1.8,1.8c-0.9,0.1-1.6-0.3-3.2-1.7c-2.7-0.2-2.7,2.7-2.7,4.3c-0.1,1.6-0.8,3.4-2.2,5.1
		c-1.5,1.7-1.6,2.9-1.6,2.9l-0.2-1.7c0,0-1.1,1.3-1,3.2c0,0-0.7-1.8-0.7-2.1s-1.4,1.8-1.7,3.4c0,0-0.2-1.7-0.2-2.4
		c0,0-2,3.2-2.2,3.6c0,0,0.6-1.3,0.5-2.4c0,0-1.3,2.4-3.7,2.9c-0.3,0.5,1.6,10.4,2.7,11.6c1.2,1.2,4.3,0.3,4.6,1.6s0.1,3.3-1.2,3.4
		c-1.3,0.1-5.5,0.3-6.3-0.2c-0.9-0.5-1.5-4.6-2.7-5.1c-1.3-0.5-2-0.9-1.8-1.6c0.1-0.7,0.6-1.8,0.3-2.7s-2.2-6.1-3.4-6.3
		c-1.2-0.2-1.7,0.9-2.5,0.9l0.3-1c0,0-0.8,0.9-1.7,0.9c0,0,1-1.5,0.5-1.4c-0.5,0.1-1.2,1.3-1.8,1.4c0,0,0.3-2.2-0.5-2.1
		c-0.9,0.2-2.7,4.7-2.9,5.6c-0.3,0.9-2.1,6.1-2.1,7s-0.1,1.4,1.2,1.6c1.3,0.2,3.9,0.8,3.2,2.4c-0.6,1.7-0.5,1.7-1.2,1.7
		c-0.7,0-6.1,0.6-7.3-0.5c-1.3-1.1-0.2-4.4-0.7-5c-0.5-0.5-1.1-1.6-1.2-1.7c-0.1-0.2,1-0.5,1.4-2.4c0.3-1.8,0.9-6.7,0-8.4
		c-0.2-0.5-3-0.1-4.6-0.2c-1.6-0.1-8.3-1.8-10.3-3.2c-0.9,0.9-1.1,2.7-3.1,5c-2,2.2-5.6,4.8-5.6,5.6s-0.6,4.6,1.8,5.5
		c2.5,0.9,4.6,0.6,4.6,2.7c0,2.1-1.3,2.1-1.8,2.2c-0.6,0.1-4.8,0.1-5.8-0.3c-1-0.5-1.8-3.9-2.2-4.8c-0.3-0.9-1.8-3.9-2.4-4.4
		c-0.6-0.5-0.9-2.2-0.5-2.9c0.3-0.7,3-2.8,2.7-5.9c0,0-5,5.7-11.6,7c-2,0.5-0.5,6.3,0.5,6.5c1,0.2,3.7,0.3,4.3,1.8
		c0.5,1.5-0.3,2.9-1.2,2.9c-0.9,0-5.6,0-6.1-0.3c-0.5-0.3-1.4-2.7-1.7-3.7c-0.3-1-1.3-4.6-1.8-5.5c-0.6-0.9-0.5-3.5,0-3.9
		c0.5-0.5,5.6-3.4,6.5-9.4c0.9-6,1-9,1-9s-3.1-0.1-5.5,7.3s-3.9,10-9.6,13.8c-1,0.6-1.7,1.7-3.4,2.2s-3.4,1.4-4.4,1.7
		c-1,0.2-2.1,0-2.1,0s1-0.7,1.6-1.2c0,0-2.2,1.2-5.8,0c0,0,2.2-0.1,3.4-0.7l-0.9-0.5c0,0,2.8-0.2,3.1-0.9L5.3,189
		c0,0,2.2-1.2,3.2-1.8c1-0.6,1.7-0.7,1.7-0.7l-2.4-0.2c0,0,3.6-0.3,7,0s6.7-8,6.8-10.7c0.1-2.7,1.4-11.8,11.8-15.4
		c1.6-0.7,5.4-4.7,7.5-5.1c2.1-0.5,9.9-0.6,16.2,0.2s17.6-1,19.6-3.2c0.5-0.5-1.6-1.4-1.6-1.4s4.4-0.2,5.1-0.9
		c0.8-0.7-3.9-0.9-3.9-0.9s4.7-0.3,5.5-0.7s-3.6-0.9-3.6-0.9s3.9,0.1,4.3-0.2c0.4-0.3-1.2-1.2-1.7-1.2s2.4-0.3,2.4-0.3l-2.2-0.9
		c0,0,4-1.2,6-0.9c0,0-1.7-0.7-2.2-0.9c-0.5-0.1,4-0.9,6.3,0.5c0,0-0.8-1.7-2.7-2.4c0,0,5,1.7,5.1,1.7s2-0.5,4.3-0.5s4.2,1.4,5.6,1
		c1.4-0.3,3.9,0.2,3.9,0.2s-1.7,0.2-1.8,0.9c0,0,4.1,0.9,4.6,1.6c0,0-3.2-1-3.7-0.3c0,0,3.5,0.7,4.3,1.4c0,0-4.4-0.6-4.3,0.2
		c0,0,4.8,1,5.3,1.8c0,0-2.1-1-3.1-0.3c0,0,1.5,1.6,2.7,1.7C111.1,150.4,109.2,150.8,108,150.4z"/>
</g>
</svg>
