<?xml version="1.0" encoding="utf-8"?>
<!-- Generator: Adobe Illustrator 18.0.0, SVG Export Plug-In . SVG Version: 6.00 Build 0)  -->
<!DOCTYPE svg PUBLIC "-//W3C//DTD SVG 1.1//EN" "http://www.w3.org/Graphics/SVG/1.1/DTD/svg11.dtd">
<svg version="1.1" id="animal--rh" xmlns="http://www.w3.org/2000/svg" xmlns:xlink="http://www.w3.org/1999/xlink" x="0px" y="0px"
	 viewBox="0 0 200 200" enable-background="new 0 0 200 200" xml:space="preserve">
<defs>
	
	<link  type="text/css" rel="stylesheet" xmlns="http://www.w3.org/1999/xhtml" href="/stylesheets/main.css"></link>
</defs>
<g id="rhino--g">
	
		<linearGradient id="SVGID_1_" gradientUnits="userSpaceOnUse" x1="225.1281" y1="1054.6431" x2="34.579" y2="864.0939" gradientTransform="matrix(0.59 0 0 -0.59 0.41 728.2839)">
		<stop  offset="0" style="stop-color:#F15A24"/>
		<stop  offset="0" style="stop-color:#F15622"/>
		<stop  offset="0" style="stop-color:#EF3B18"/>
		<stop  offset="0" style="stop-color:#ED250F"/>
		<stop  offset="0" style="stop-color:#EC1408"/>
		<stop  offset="0" style="stop-color:#EC0903"/>
		<stop  offset="0" style="stop-color:#EB0201"/>
		<stop  offset="0" style="stop-color:#EB0000"/>
		<stop  offset="9.425960e-02" style="stop-color:#E60100"/>
		<stop  offset="0.2115" style="stop-color:#D60300"/>
		<stop  offset="0.3409" style="stop-color:#BD0600"/>
		<stop  offset="0.4791" style="stop-color:#9A0B00"/>
		<stop  offset="0.6227" style="stop-color:#6D1100"/>
		<stop  offset="0.7013" style="stop-color:#511500"/>
	</linearGradient>
	<path fill="url(#SVGID_1_)" d="M155.4,128.2c0,0,8.7,13.7-5.6,30.8c0,0,0.9,8.2-2.3,10.3c0,0-0.9-1.8-3.7-2.8
		c-2.9-1-2.8,1.4-2.8,1.4s1.4,2,2.8,1.8c0,0-2.1,2.8-4.7,2.3c-2.5-0.5-4.7-0.5-6-1c-1.4-0.5-1.2-1.2-5.1-1.4
		c-4-0.2-6.1,1.1-13.5-6.5c-1.4-0.3-3.8,1.1-5.6,2.8c-1.7,1.7-6,2.5-6,4.2c-0.1,1.7-0.2,7.5,1,9.3c1.2,1.8-0.2,8.5,0.5,9.8
		c0.7,1.2,6.4,5.7,6.5,7c0.1,1.2-1.4,2.5-2.3,2.3c-0.9-0.2-3.2,1-4.2,1s-4.4-1.6-5.6-1.4c-1.2,0.2-2.9-2.3-2.8-3.7s0.7-3.9,0-5.6
		c-0.7-1.7-2.7-3.6-2.8-7c0,0-2.4,5.9-4.2,7.5c-1.8,1.6,0.9,6.5,1.4,6c0.6-0.5,1.7,2.6,1,3.7c-0.7,1.1-4,1-5.1,1s-6.3,0.2-7-2.3
		c-0.7-2.5,1.4-5.2,1.8-7.9c0.6-2.6,0.7-9.1,1.4-10.3c0.7-1.1,1.4-4.7,1.4-4.7s-4,3.7-15.3,4.2s-17.5-2.8-18.2-2.3
		c-0.7,0.5-5.1,5.6-5.1,7.9c-0.1,2.3,0.1,4.4,1.8,6c1.7,1.6,4,4.4,3.7,6c-0.2,1.7-4.7,2.1-6.5,2.3c-1.8,0.2-4.9-1.8-6-1.8
		c-1.2,0-1.8-4.8-1.8-7.9c-0.1-3.1-3.2-5.2-2.8-7c0.4-1.7,2.1-4.4,2.3-5.1c0.2-0.6,0.6,1.6-9.3,3.7s-4.6,14.1-2.8,14.9
		s1.2,3.7,0.5,3.7s-4.1,1.4-7.5,0s-5.5-0.2-5.6-1.4c-0.1-1.2,2.1-7.2,1.8-9.3c-0.3-2.1-2.1-5.7-1.9-7c0.2-1.2,5.1-5.4,5.6-7.5
		c0.6-2,0.9-7.6,0-10.3c-0.9-2.6-1.4-8.3-1.4-8.3s-2.5-3.1-4.7,21l-0.5-6c0,0-1.2,7.9-1.8,9.8c0,0-0.4-3.7-1-4.7
		c0,0-0.6,8.8-3.7,10.3c0,0,1.9-3.1,1.8-4.7c0,0-3.7,3.4-4.2,5.6c0,0,1.4-4.4,3.7-7.5c0,0-4,1.4-4.2,3.7c0,0,1.2-3.6,4.2-7
		c1-1.6,1.4-2.8,1.4-2.8s-4.6,4.2-4.7,5.1c0,0,3.8-7.6,7-12.1s2.5-12.7,4.7-16.8c2.1-4.1,4.9-6.8,10.7-9.8c5.8-2.9,12-8.1,14.5-8.8
		c2.4-0.8,13.1,0,20.5,1.4c7.4,1.4,27.3-3.3,29.8-4.7c2.5-1.4,9.4-2.5,13.5,0c4.1,2.5,10.3,5.4,14.9,4.7c0,0-0.7-5.1,3.3-9.3
		c0,0,1,7.2,1,10.3c0,0,2.2,2.5,2.8,1.8c0.6-0.6,3.8-5.2,10.3-4.7c0,0-5.8,7-7,7.5c-1.2,0.5,1.8,8.5,4.7,8.8
		c2.9,0.3,8.2-1.1,10.3-9.3c0,0,0.6,11.4-0.5,14C141.9,151.5,156,150.5,155.4,128.2z"/>
</g>
</svg>
